<?xml version="1.0" standalone="no"?>
<!DOCTYPE svg PUBLIC "-//W3C//DTD SVG 20010904//EN"
 "http://www.w3.org/TR/2001/REC-SVG-20010904/DTD/svg10.dtd">
<svg version="1.0" xmlns="http://www.w3.org/2000/svg"
 width="500.000000pt" height="500.000000pt" viewBox="0 0 500.000000 500.000000"
 preserveAspectRatio="xMidYMid meet">

<g transform="translate(0.000000,500.000000) scale(0.100000,-0.100000)"
fill="#000000" stroke="none">
<path d="M3372 4048 c-16 -16 -15 -35 2 -45 7 -4 24 -33 36 -63 12 -30 29 -70
37 -88 8 -18 11 -37 8 -42 -3 -6 -3 -10 2 -10 14 0 46 -187 39 -225 -5 -23 -3
-35 4 -35 6 0 9 4 6 9 -3 5 5 16 19 25 31 20 32 53 5 103 -11 21 -20 50 -20
65 0 50 -97 285 -123 296 -4 2 -5 8 -1 13 7 13 0 11 -14 -3z m5 -30 c-3 -8 -6
-5 -6 6 -1 11 2 17 5 13 3 -3 4 -12 1 -19z"/>
<path d="M4045 3688 c3 -18 7 -47 8 -63 2 -17 6 -36 10 -42 4 -5 8 -24 9 -41
1 -17 5 -29 8 -27 3 2 12 -6 20 -18 12 -20 12 -21 -4 -8 -29 24 -29 3 0 -25
16 -15 23 -24 17 -20 -9 5 -13 -1 -13 -18 0 -20 5 -26 23 -26 42 0 33 -45 -21
-109 -27 -31 -52 -65 -56 -76 l-7 -20 20 20 c11 11 44 52 74 90 29 39 75 87
103 108 67 51 219 124 332 159 52 16 92 31 90 33 -7 7 -146 -25 -220 -51 -106
-36 -143 -42 -195 -33 -95 18 -163 78 -179 157 -9 44 -27 54 -19 10z"/>
<path d="M2840 3625 c0 -13 133 -176 152 -186 10 -6 24 -8 31 -6 7 2 -4 12
-24 22 -20 9 -43 29 -52 44 -19 31 -107 135 -107 126z"/>
<path d="M3766 3586 c-51 -67 -110 -118 -171 -147 -63 -30 -163 -59 -202 -59
-13 0 -23 -4 -23 -8 0 -13 179 -29 260 -23 l74 6 -47 12 c-26 7 -47 17 -47 22
0 5 17 20 37 32 54 33 104 80 97 90 -3 5 -1 9 5 9 13 0 54 77 49 92 -2 6 -16
-6 -32 -26z"/>
<path d="M1714 3596 c-7 -17 24 -72 56 -101 11 -10 20 -23 20 -29 1 -15 50
-74 50 -59 0 6 -10 28 -21 48 -12 19 -19 44 -16 55 6 22 -30 73 -64 91 -15 7
-21 6 -25 -5z"/>
<path d="M1968 3510 c-34 -18 -58 -40 -43 -40 7 0 85 51 85 56 0 6 -1 5 -42
-16z"/>
<path d="M2057 3339 c7 -7 15 -10 18 -7 3 3 -2 9 -12 12 -14 6 -15 5 -6 -5z"/>
<path d="M2169 3266 c7 -9 22 -18 33 -22 11 -3 39 -18 61 -34 23 -15 74 -44
112 -64 103 -53 99 -50 84 -75 -8 -11 -22 -21 -31 -21 -27 0 -22 -18 10 -34
16 -8 34 -21 40 -29 19 -23 -33 -9 -54 14 -9 10 -24 19 -34 19 -22 0 -133 -96
-164 -142 -32 -47 -63 -161 -72 -263 -6 -70 -5 -78 8 -67 22 17 28 5 28 -54 0
-99 45 -78 85 40 24 72 58 141 75 156 3 3 20 23 37 45 17 22 65 67 106 100 42
33 76 65 76 72 1 7 -7 17 -16 22 -10 6 -13 11 -7 11 5 0 15 -5 22 -12 9 -9 23
-6 62 12 27 13 50 27 50 31 0 8 -92 39 -116 39 -7 0 -15 4 -18 9 -3 4 20 2 51
-5 31 -7 104 -15 162 -19 l106 -6 -139 50 c-76 27 -143 54 -149 60 -6 6 -21
11 -32 11 -25 0 -145 51 -260 110 -44 23 -91 46 -104 51 -21 8 -22 8 -12 -5z
m346 -226 l20 -9 -20 0 c-11 0 -27 4 -35 9 -13 9 -13 10 0 9 8 0 24 -4 35 -9z
m-164 -233 c-10 -9 -11 -8 -5 6 3 10 9 15 12 12 3 -3 0 -11 -7 -18z m39 -14
c0 -5 -9 -19 -20 -33 l-20 -25 0 26 c0 14 3 29 7 32 9 9 33 9 33 0z"/>
<path d="M4014 3173 c-8 -13 -32 -17 -121 -21 -80 -3 -110 -8 -107 -16 5 -14
-118 -87 -204 -122 -145 -58 -213 -69 -427 -69 -136 0 -184 -2 -150 -8 113
-18 123 -23 139 -75 8 -27 15 -38 15 -25 1 27 74 73 117 73 24 0 116 16 201
35 15 3 23 0 26 -12 4 -14 5 -14 6 3 1 17 12 24 49 34 26 8 49 16 52 19 3 3
19 13 35 21 17 8 37 19 45 26 8 7 41 26 74 43 49 27 65 31 102 25 24 -3 49
-12 55 -20 15 -18 4 -59 -27 -107 -14 -22 -27 -50 -28 -64 -2 -17 -13 -30 -35
-40 -51 -25 -88 -66 -101 -111 -6 -23 -14 -42 -19 -42 -11 0 -46 51 -61 90 -7
19 -21 58 -32 85 l-19 50 4 -55 c4 -61 42 -154 83 -203 25 -29 26 -36 20 -99
-7 -73 -19 -114 -43 -140 -40 -44 -103 2 -123 89 -7 32 -15 65 -18 73 -2 8 -7
74 -11 145 -4 72 -9 121 -10 110 -28 -229 -34 -332 -19 -317 8 8 16 0 31 -29
29 -60 79 -109 111 -109 30 0 31 -3 11 -60 -8 -24 -13 -45 -10 -48 7 -8 10 -4
45 78 18 41 41 84 52 96 15 17 19 40 22 126 6 152 16 180 81 231 30 23 55 48
55 55 0 6 7 12 15 12 9 0 15 9 15 23 0 13 7 32 15 43 8 10 24 38 34 61 11 23
34 51 51 61 29 18 30 20 10 25 -21 5 -21 7 -5 31 9 14 15 30 13 36 -1 5 -8 3
-14 -7z"/>
<path d="M4480 3007 c0 -2 39 -33 88 -69 123 -92 285 -267 377 -405 15 -24 32
-43 36 -43 21 0 -119 192 -212 293 -100 108 -289 255 -289 224z"/>
<path d="M1934 2960 c3 -25 11 -116 18 -202 6 -87 16 -158 20 -158 15 0 -17
364 -33 390 -7 11 -9 2 -5 -30z"/>
<path d="M3349 2638 c-6 -24 -19 -69 -30 -100 -21 -63 -24 -82 -8 -55 16 27
32 21 24 -10 -11 -42 -22 -183 -14 -183 4 0 16 39 29 88 25 100 40 302 22 302
-6 0 -16 -19 -23 -42z"/>
<path d="M4318 2333 c12 -2 30 -2 40 0 9 3 -1 5 -23 4 -22 0 -30 -2 -17 -4z"/>
<path d="M4401 2326 c7 -7 231 -47 236 -42 7 7 -23 14 -127 31 -100 16 -116
17 -109 11z"/>
<path d="M3335 2213 c-32 -60 -75 -130 -97 -157 -42 -54 -44 -75 -3 -30 52 58
145 214 158 267 4 15 6 27 4 27 -2 0 -30 -48 -62 -107z"/>
<path d="M4925 2242 c26 -50 41 -70 48 -63 13 13 -17 72 -57 109 -29 27 -29
27 9 -46z"/>
<path d="M3046 2264 c-4 -14 -5 -29 -2 -31 3 -3 8 7 12 21 3 15 4 29 1 32 -2
3 -8 -7 -11 -22z"/>
<path d="M3568 2247 c-26 -17 -50 -38 -54 -47 -11 -27 -21 -130 -12 -130 4 0
8 14 8 31 0 53 29 98 81 127 45 25 57 42 33 48 -5 2 -30 -11 -56 -29z"/>
<path d="M3650 2260 c0 -5 7 -7 15 -4 8 4 15 8 15 10 0 2 -7 4 -15 4 -8 0 -15
-4 -15 -10z"/>
<path d="M4710 2255 c19 -7 42 -13 50 -13 8 0 -1 6 -20 13 -19 7 -42 13 -50
13 -8 0 1 -6 20 -13z"/>
<path d="M2954 2075 c-9 -14 -15 -27 -13 -30 3 -2 12 10 21 26 21 36 15 39 -8
4z"/>
<path d="M1134 2010 c0 -11 6 -20 14 -20 7 0 12 8 10 17 -4 24 -24 27 -24 3z"/>
<path d="M970 1992 c0 -8 25 -39 55 -71 l55 -58 0 -72 c0 -46 4 -70 10 -66 6
3 10 25 10 47 0 24 6 45 14 52 12 9 1 26 -64 96 -44 47 -79 79 -80 72z"/>
<path d="M1110 1963 c0 -13 5 -23 10 -23 13 0 13 11 0 30 -8 12 -10 11 -10 -7z"/>
<path d="M961 1789 c0 -35 4 -73 9 -84 6 -13 7 10 3 60 -7 98 -13 110 -12 24z"/>
<path d="M855 1725 c29 -78 58 -132 108 -197 19 -24 38 -51 43 -60 20 -36 159
-180 217 -226 60 -47 165 -112 182 -112 5 0 -28 26 -72 58 -109 78 -119 87
-190 167 -72 82 -107 144 -138 240 -15 47 -27 70 -37 70 -18 0 -82 57 -116
101 -21 28 -21 26 3 -41z"/>
<path d="M1693 1561 c4 -30 12 -58 18 -62 6 -4 8 -12 5 -18 -9 -15 -59 -14
-74 1 -6 6 -15 8 -19 4 -5 -4 0 -13 10 -20 20 -16 21 -34 2 -59 -9 -13 -12
-35 -8 -71 4 -34 1 -56 -6 -60 -7 -5 -11 5 -11 28 0 50 -13 45 -38 -17 -25
-59 -27 -77 -10 -77 6 0 9 -3 6 -6 -4 -3 -2 -20 3 -37 5 -18 12 -52 15 -76 l6
-44 -33 6 c-32 6 -33 6 -14 -8 58 -44 57 -42 50 -118 l-6 -72 46 48 c47 48 47
48 77 32 17 -8 33 -15 35 -15 7 0 3 39 -5 44 -14 9 -4 308 13 351 14 39 15 89
0 150 -13 56 -38 120 -53 135 -13 13 -14 8 -9 -39z m7 -296 c0 -33 -4 -45 -15
-45 -11 0 -15 11 -15 38 0 21 3 42 7 45 16 16 23 4 23 -38z m-63 -97 c-2 -13
-4 -3 -4 22 0 25 2 35 4 23 2 -13 2 -33 0 -45z"/>
<path d="M3093 1437 c-87 -143 -117 -197 -111 -203 3 -2 19 24 37 57 18 33 52
91 77 129 24 38 44 72 44 75 0 4 9 20 21 37 12 16 19 31 17 33 -2 2 -40 -55
-85 -128z"/>
<path d="M1510 1525 c30 -19 61 -35 69 -35 20 0 13 5 -52 40 -76 40 -84 38
-17 -5z"/>
<path d="M1903 1310 c0 -47 2 -66 4 -42 2 23 2 61 0 85 -2 23 -4 4 -4 -43z"/>
<path d="M2050 1306 c0 -2 7 -7 16 -10 8 -3 12 -2 9 4 -6 10 -25 14 -25 6z"/>
<path d="M2100 1252 c6 -13 14 -21 18 -18 3 4 -2 14 -12 24 -18 16 -18 16 -6
-6z"/>
<path d="M2486 1254 c-20 -19 -5 -54 22 -54 17 0 72 48 72 63 0 14 -79 7 -94
-9z"/>
<path d="M2167 1175 c39 -50 93 -102 93 -89 0 5 -28 36 -62 69 -49 48 -55 52
-31 20z"/>
<path d="M1444 1106 c11 -9 24 -16 30 -16 12 0 7 5 -24 19 -24 11 -24 11 -6
-3z"/>
<path d="M2270 1072 c0 -6 15 -21 33 -33 17 -13 35 -28 39 -34 5 -7 8 -7 8 1
0 10 -23 33 -62 63 -11 8 -18 9 -18 3z"/>
<path d="M1094 1004 c3 -14 11 -36 19 -48 31 -46 150 -166 193 -193 24 -15 44
-31 44 -35 0 -5 -26 -8 -57 -9 -32 0 -101 -6 -153 -12 -89 -11 -78 -12 185
-13 154 0 309 -6 345 -11 37 -6 69 -7 74 -2 14 13 -8 18 -138 28 -138 12 -173
26 -297 119 -95 71 -123 96 -177 155 -38 42 -42 44 -38 21z"/>
<path d="M1841 917 l-1 -28 -30 17 c-50 30 -46 6 8 -49 37 -37 57 -69 72 -111
11 -33 17 -63 13 -67 -5 -5 -25 -4 -46 0 -52 12 -50 -12 3 -28 29 -9 40 -17
40 -31 0 -11 4 -20 10 -20 5 0 7 8 3 18 -5 14 -3 15 7 5 10 -10 11 -15 1 -27
-29 -34 25 -111 72 -102 33 6 41 -15 13 -31 -20 -12 -20 -12 9 -18 30 -7 65
-50 65 -81 0 -20 52 -40 125 -48 l60 -7 -40 33 c-126 102 -234 226 -282 323
-28 55 -86 212 -96 260 -3 14 -5 12 -6 -8z"/>
<path d="M2482 904 c10 -10 20 -15 24 -12 3 4 -5 12 -18 18 -22 12 -22 12 -6
-6z"/>
<path d="M2610 820 c41 -32 131 -71 154 -67 16 3 6 10 -39 31 -33 15 -72 34
-87 42 -38 21 -57 17 -28 -6z"/>
<path d="M980 690 c-24 -8 -24 -8 5 -9 17 0 37 4 45 9 12 8 11 10 -5 9 -11 -1
-31 -5 -45 -9z"/>
<path d="M2650 640 c-9 -6 -10 -10 -3 -10 6 0 15 5 18 10 8 12 4 12 -15 0z"/>
<path d="M2443 468 c-18 -24 -63 -127 -63 -145 0 -11 -6 -27 -13 -36 -10 -15
-17 -16 -45 -6 -23 8 -44 8 -74 1 -22 -6 -45 -9 -52 -7 -6 2 -30 6 -52 9 -38
5 -47 2 -110 -44 -68 -49 -70 -50 -124 -44 -47 5 -61 2 -102 -20 -49 -28 -79
-56 -59 -56 6 0 33 13 59 30 55 33 77 36 125 17 18 -8 57 -20 87 -27 30 -7 86
-26 123 -43 60 -27 69 -28 80 -14 12 15 89 57 138 76 27 10 40 50 54 171 4 30
16 75 26 99 19 45 20 62 2 39z m-264 -222 c6 -7 38 -25 71 -40 33 -15 60 -31
60 -35 0 -4 -28 -22 -62 -40 l-62 -31 -70 27 c-39 15 -73 28 -75 30 -9 7 94
103 110 103 9 0 22 -6 28 -14z"/>
</g>
</svg>
